<svg width="22" height="18" viewBox="0 0 22 18" fill="none" xmlns="http://www.w3.org/2000/svg">
<path d="M3.7002 0.75C2.04334 0.75 0.700195 2.09315 0.700195 3.75V4.5H21.7002V3.75C21.7002 2.09315 20.357 0.75 18.7002 0.75H3.7002Z" fill="#23DF81"/>
<path fill-rule="evenodd" clip-rule="evenodd" d="M21.7002 6.75H0.700195V14.25C0.700195 15.9069 2.04334 17.25 3.7002 17.25H18.7002C20.357 17.25 21.7002 15.9069 21.7002 14.25V6.75ZM3.7002 10.5C3.7002 10.0858 4.03598 9.75 4.4502 9.75H10.4502C10.8644 9.75 11.2002 10.0858 11.2002 10.5C11.2002 10.9142 10.8644 11.25 10.4502 11.25H4.4502C4.03598 11.25 3.7002 10.9142 3.7002 10.5ZM4.4502 12.75C4.03598 12.75 3.7002 13.0858 3.7002 13.5C3.7002 13.9142 4.03598 14.25 4.4502 14.25H7.4502C7.86441 14.25 8.2002 13.9142 8.2002 13.5C8.2002 13.0858 7.86441 12.75 7.4502 12.75H4.4502Z" fill="#23DF81"/>
</svg>
