<svg width="25" height="24" viewBox="0 0 25 24" fill="none" xmlns="http://www.w3.org/2000/svg">
<path fill-rule="evenodd" clip-rule="evenodd" d="M2.2998 6.375C2.2998 5.33947 3.13927 4.5 4.1748 4.5H21.4248C22.4603 4.5 23.2998 5.33947 23.2998 6.375V9.40135C23.2998 9.66907 23.1571 9.91649 22.9254 10.0506C22.2509 10.4407 21.7998 11.1681 21.7998 12C21.7998 12.8319 22.2509 13.5593 22.9254 13.9494C23.1571 14.0835 23.2998 14.3309 23.2998 14.5987V17.625C23.2998 18.6605 22.4603 19.5 21.4248 19.5H4.1748C3.13927 19.5 2.2998 18.6605 2.2998 17.625V14.5987C2.2998 14.3309 2.44252 14.0835 2.67426 13.9494C3.34874 13.5593 3.7998 12.8319 3.7998 12C3.7998 11.1681 3.34874 10.4407 2.67426 10.0506C2.44252 9.91649 2.2998 9.66907 2.2998 9.40135V6.375ZM17.2998 5.25C17.714 5.25 18.0498 5.58579 18.0498 6V6.75C18.0498 7.16421 17.714 7.5 17.2998 7.5C16.8856 7.5 16.5498 7.16421 16.5498 6.75V6C16.5498 5.58579 16.8856 5.25 17.2998 5.25ZM18.0498 9.75C18.0498 9.33579 17.714 9 17.2998 9C16.8856 9 16.5498 9.33579 16.5498 9.75V10.5C16.5498 10.9142 16.8856 11.25 17.2998 11.25C17.714 11.25 18.0498 10.9142 18.0498 10.5V9.75ZM17.2998 12.75C17.714 12.75 18.0498 13.0858 18.0498 13.5V14.25C18.0498 14.6642 17.714 15 17.2998 15C16.8856 15 16.5498 14.6642 16.5498 14.25V13.5C16.5498 13.0858 16.8856 12.75 17.2998 12.75ZM18.0498 17.25C18.0498 16.8358 17.714 16.5 17.2998 16.5C16.8856 16.5 16.5498 16.8358 16.5498 17.25V18C16.5498 18.4142 16.8856 18.75 17.2998 18.75C17.714 18.75 18.0498 18.4142 18.0498 18V17.25ZM6.7998 12C6.7998 11.5858 7.13559 11.25 7.5498 11.25H12.7998C13.214 11.25 13.5498 11.5858 13.5498 12C13.5498 12.4142 13.214 12.75 12.7998 12.75H7.5498C7.13559 12.75 6.7998 12.4142 6.7998 12ZM7.5498 14.25C7.13559 14.25 6.7998 14.5858 6.7998 15C6.7998 15.4142 7.13559 15.75 7.5498 15.75H10.5498C10.964 15.75 11.2998 15.4142 11.2998 15C11.2998 14.5858 10.964 14.25 10.5498 14.25H7.5498Z" fill="#0740A4"/>
</svg>
